<svg id="Capa_1" enable-background="new 0 0 513.013 513.013" height="512" viewBox="0 0 513.013 513.013" width="512" xmlns="http://www.w3.org/2000/svg"><g><path d="m504.167 190.15c-17.725-66.152-60.149-121.443-119.459-155.687-59.31-34.244-128.404-43.341-194.558-25.618-66.153 17.725-121.444 60.15-155.687 119.46-34.244 59.309-43.342 128.405-25.617 194.558 17.724 66.152 60.149 121.443 119.459 155.687 39.508 22.811 83.354 34.463 127.784 34.463 22.268 0 44.688-2.928 66.773-8.846 66.152-17.725 121.443-60.149 155.687-119.459s43.342-128.406 25.618-194.558zm-38.608 187.057c-32.24 55.84-84.296 95.783-146.579 112.47-62.284 16.689-127.335 8.122-183.176-24.118s-95.783-84.296-112.47-146.579c-16.688-62.283-8.122-127.335 24.118-183.176s84.296-95.783 146.579-112.47c20.798-5.573 41.898-8.329 62.867-8.329 41.827 0 83.115 10.972 120.309 32.447 55.84 32.24 95.783 84.296 112.47 146.579 16.688 62.283 8.123 127.336-24.118 183.176z"/><path d="m392.073 99.808c-4.036-3.486-9.368-4.974-14.626-4.086-5.259.889-9.805 4.047-12.472 8.666l-33.645 58.272c-.601-.017-1.201-.044-1.804-.044h-37.664l43.643-75.589c2.652-4.593 3.124-10.083 1.295-15.062-1.831-4.982-5.748-8.865-10.747-10.651-23.379-8.352-47.769-12.406-72.536-12.022-4.142.063-7.448 3.471-7.385 7.613.062 4.103 3.408 7.386 7.497 7.386.039 0 .077 0 .116-.001 22.936-.342 45.58 3.403 67.261 11.15 1.091.39 1.542 1.23 1.713 1.697.17.464.371 1.393-.205 2.39l-48.164 83.419c-5.109.679-9.98 2.469-14.352 5.277l-13.377-5.423c-7.589-3.061-15.586-4.613-23.771-4.613h-24.337c-16.619 0-32.338 6.375-44.264 17.949l-3.793 3.682-54.651-29.078c25.851-39.343 64.857-67.526 110.96-79.879 5.324-1.427 10.827-2.648 16.357-3.629 4.079-.724 6.797-4.618 6.074-8.696s-4.615-6.794-8.696-6.074c-5.953 1.057-11.88 2.373-17.617 3.91-53.632 14.37-98.374 48.618-125.982 96.437s-34.9 103.69-20.53 157.321c10.952 40.873 33.727 76.904 65.863 104.198 3.257 2.766 7.338 4.245 11.534 4.245 1.018 0 2.042-.087 3.063-.264 5.227-.906 9.745-4.059 12.396-8.652l41.611-72.071c2.071-3.587.842-8.174-2.745-10.245-3.588-2.072-8.175-.843-10.245 2.745l-7.133 12.355-18.261-13.946c-6.919-5.284-12.376-12.313-15.782-20.326l-4.086-9.614c-.61-1.437-1.654-2.647-2.985-3.462l-65.416-40.066c.138-31.768 8.2-63.055 23.859-91.427l60.191 32.026c1.111.591 2.32.879 3.521.879 1.906 0 3.792-.726 5.226-2.118l7.715-7.488c9.11-8.843 21.12-13.712 33.816-13.712h24.337c6.253 0 12.363 1.186 18.16 3.524l4.334 1.748-25.929 18.236c-11.354 7.985-18.357 20.51-19.216 34.363l-.895 14.444c-.531 8.568 2.537 17.069 8.416 23.324 1.119 1.191 2.327 2.284 3.607 3.275l-17.498 30.307c-2.071 3.587-.842 8.174 2.745 10.245 1.181.682 2.471 1.006 3.743 1.006 2.592 0 5.113-1.345 6.502-3.751l18.311-31.715c1.758.308 3.545.475 5.348.475 14.707 0 27.565-10.449 30.574-24.845l1.769-8.466 23.302-4.4-107.126 185.542c-2.667 4.618-3.129 10.134-1.27 15.133 1.86 5 5.815 8.872 10.852 10.625 21.991 7.654 44.85 11.495 67.792 11.494 17.999 0 36.051-2.366 53.757-7.109 48.559-13.01 90.675-43.182 118.591-84.957 2.301-3.444 1.375-8.102-2.069-10.403s-8.102-1.375-10.403 2.069c-25.893 38.749-64.959 66.734-110.001 78.802-37.36 10.01-76.343 8.605-112.736-4.062-1.095-.381-1.549-1.221-1.723-1.688-.173-.467-.378-1.4.201-2.403l22.614-39.167 34.973 26.71c4.268 3.26 9.326 4.848 14.358 4.847 6.644 0 13.24-2.77 17.896-8.117 2.945-3.381 4.729-7.375 5.439-11.505 2.153.597 4.36.911 6.568.911 6.401-.001 12.772-2.494 17.582-7.385 2.83-2.878 4.858-6.315 5.999-10.054 3.379 1.501 7.059 2.293 10.856 2.293.197 0 .396-.002.595-.006 7.181-.155 13.866-3.103 18.823-8.3 3.693-3.87 6.08-8.619 6.991-13.746 2.859.978 5.844 1.483 8.831 1.483 7.353 0 14.684-2.943 19.981-8.722 6.494-7.084 8.546-16.598 6.256-25.209l20.049-19.167c9.872-9.438 16.922-21.271 20.518-34.387l17.546-10.345c-1.965 21.372-7.485 42.413-16.498 62.14-1.721 3.767-.063 8.217 3.705 9.938 1.01.461 2.069.68 3.112.68 2.845 0 5.566-1.628 6.826-4.385 19.936-43.632 24.068-93.218 11.634-139.623-10.792-40.275-33.12-75.918-64.569-103.076zm-272.353 206.823 3.147 7.406c4.42 10.399 11.502 19.521 20.482 26.379l19.802 15.123-26.915 46.617c-.576.997-1.479 1.288-1.966 1.372-.491.084-1.443.115-2.327-.635-29.802-25.312-50.925-58.732-61.083-96.647-2.943-10.986-4.904-22.072-5.903-33.157zm258.245-194.743c.58-1.004 1.49-1.293 1.981-1.376.49-.081 1.445-.109 2.323.648 15.433 13.327 28.497 28.86 38.861 46.067l-38.428 26.775c-2.068 1.441-4.863 1.193-6.645-.588l-2.603-2.603c-7.439-7.439-16.435-12.75-26.25-15.648zm-5.529 241.217c-4.409 4.811-11.978 5.213-16.874.897l-35.134-30.978-.179-.158s-.001 0-.001-.001l-4.791-4.224c-3.108-2.74-7.847-2.442-10.585.666-2.739 3.107-2.441 7.846.666 10.585l4.784 4.218c.002.001.003.003.005.004l25.779 22.742c2.432 2.145 3.848 5.111 3.988 8.352.139 3.24-1.017 6.317-3.255 8.664-2.185 2.29-5.13 3.588-8.294 3.657-3.153.074-6.164-1.103-8.445-3.296l-7.462-7.175c-.657-.771-1.36-1.512-2.12-2.209l-3.993-3.668-15.644-15.042c-2.986-2.871-7.734-2.778-10.604.208-2.871 2.986-2.778 7.733.208 10.604l21.077 20.267c1.199 1.591 1.877 3.505 1.929 5.543.067 2.641-.916 5.132-2.768 7.016-3.467 3.527-9.006 3.871-12.883.798-.038-.03-.076-.059-.114-.088l-13.487-10.273-10.888-9.53c-3.118-2.729-7.854-2.414-10.583.704-2.728 3.117-2.413 7.855.704 10.583l16.216 14.194c3.6 3.151 3.973 8.65.831 12.258-3.004 3.449-8.204 3.976-11.839 1.2l-36.515-27.887 70.748-122.535 79.056 77.115c4.693 4.579 4.899 11.954.467 16.789zm47.562-79.957c-1.778 1.048-3.045 2.782-3.503 4.794-2.625 11.516-8.524 21.917-17.062 30.08l-17.67 16.893-81.112-79.121 4.914-8.51 4.865-.919c4.07-.769 6.747-4.691 5.978-8.761-.768-4.07-4.69-6.746-8.761-5.978l-52.531 9.919c-2.981.563-5.33 2.866-5.95 5.835l-2.794 13.372c-1.564 7.482-8.247 12.914-15.891 12.914-4.527 0-8.729-1.817-11.829-5.115-3.101-3.299-4.654-7.604-4.374-12.123l.895-14.444c.575-9.281 5.267-17.672 12.873-23.021l39.319-27.653c3.438-2.417 7.475-3.694 11.677-3.694h50.485c12.588 0 24.422 4.902 33.322 13.802l2.603 2.604c6.928 6.927 17.789 7.889 25.827 2.289l37.117-25.862c5.752 11.521 10.37 23.671 13.758 36.316 4.347 16.223 6.509 32.865 6.528 49.472z"/></g></svg>